<?xml version="1.0" encoding="utf-8"?>
<svg version="1.1" xmlns="http://www.w3.org/2000/svg" xmlns:xlink="http://www.w3.org/1999/xlink" x="0px" y="0px" viewBox="0 0 1000 1000" enable-background="new 0 0 1000 1000" xml:space="preserve">
<metadata> Svg Vector Icons : http://www.onlinewebfonts.com/icon </metadata>
<style type="text/css">.st0{fill:#dadada;}</style>
<g><path class="st0" d="M990,466.9c0,27.1-22,49.2-49.2,49.2c-19.6,0-36.3-11.7-44.1-28.3l-9.5-8.3V929c0,26.7-21.7,48.4-48.4,48.4H645.2h-96.8V759.6c0-13.4-10.8-24.2-24.2-24.2h-48.4c-13.4,0-24.2,10.8-24.2,24.2v217.8h-96.8l0,0H161.2c-26.7,0-48.4-21.7-48.4-48.4V493.4l-10.2-6.2c-8.1,16.1-24.3,27.4-43.5,27.4c-27.1,0-49.1-22-49.1-49.1c0-12,4.8-22.7,12-31.3l-1.2-0.8l445-396.6c18.9-18.9,49.5-18.9,68.4,0l447.2,398.8l-2.4,1.7C985.5,445.6,990,455.6,990,466.9z M517.1,156.6c-9.5-9.4-24.8-9.4-34.2,0L209.6,405.3v451.1c0,13.4,10.8,24.2,24.2,24.2h121V687c0-26.7,21.7-48.4,48.4-48.4h193.6c26.7,0,48.4,21.7,48.4,48.4v193.6h121c13.4,0,24.2-10.8,24.2-24.2V396.6h1.9L517.1,156.6z"/></g>
</svg>